{
  "accessors": [
    {
      "bufferView": 2,
      "componentType": 5126,
      "count": 10202,
      "max": [
        179.30445861816406,
        444.332763671875,
        492.17645263671875
      ],
      "min": [
        -201.79487609863281,
        -363.15472412109375,
        -321.96286010742188
      ],
      "type": "VEC3"
    },
    {
      "bufferView": 2,
      "byteOffset": 122424,
      "componentType": 5126,
      "count": 10202,
      "max": [
        1,
        1,
        1
      ],
      "min": [
        -1,
        -1,
        -1
      ],
      "type": "VEC3"
    },
    {
      "bufferView": 1,
      "componentType": 5126,
      "count": 10202,
      "max": [
        1,
        1
      ],
      "min": [
        0,
        0
      ],
      "type": "VEC2"
    },
    {
      "bufferView": 0,
      "componentType": 5125,
      "count": 30792,
      "max": [
        10201
      ],
      "min": [
        0
      ],
      "type": "SCALAR"
    },
    {
      "bufferView": 2,
      "byteOffset": 244848,
      "componentType": 5126,
      "count": 64,
      "max": [
        114.8939208984375,
        384.71875,
        330.27066040039062
      ],
      "min": [
        -60.853363037109375,
        82.780532836914062,
        -3.8982362747192383
      ],
      "type": "VEC3"
    },
    {
      "bufferView": 2,
      "byteOffset": 245616,
      "componentType": 5126,
      "count": 64,
      "max": [
        0.99996858835220337,
        1,
        0.99994903802871704
      ],
      "min": [
        -0.99996858835220337,
        -1,
        -0.99994903802871704
      ],
      "type": "VEC3"
    },
    {
      "bufferView": 1,
      "byteOffset": 81616,
      "componentType": 5126,
      "count": 64,
      "max": [
        0,
        0
      ],
      "min": [
        0,
        0
      ],
      "type": "VEC2"
    },
    {
      "bufferView": 0,
      "byteOffset": 123168,
      "componentType": 5125,
      "count": 198,
      "max": [
        63
      ],
      "min": [
        0
      ],
      "type": "SCALAR"
    }
  ],
  "asset": {
    "extras": {
      "author": "Polina (https://sketchfab.com/arhona)",
      "license": "CC-BY-4.0 (http://creativecommons.org/licenses/by/4.0/)",
      "source": "https://sketchfab.com/3d-models/billboard-47287a74a2744979b149c64ab32ee5f7",
      "title": "Billboard"
    },
    "generator": "Sketchfab-9.62.3",
    "version": "2.0"
  },
  "bufferViews": [
    {
      "buffer": 0,
      "byteLength": 123960,
      "byteOffset": 0,
      "name": "floatBufferViews",
      "target": 34963
    },
    {
      "buffer": 0,
      "byteLength": 82128,
      "byteOffset": 123960,
      "byteStride": 8,
      "name": "floatBufferViews",
      "target": 34962
    },
    {
      "buffer": 0,
      "byteLength": 246384,
      "byteOffset": 206088,
      "byteStride": 12,
      "name": "floatBufferViews",
      "target": 34962
    }
  ],
  "buffers": [
    {
      "byteLength": 452472,
      "uri": "scene.bin"
    }
  ],
  "materials": [
    {
      "doubleSided": true,
      "emissiveFactor": [
        0,
        0,
        0
      ],
      "name": "lambert1",
      "pbrMetallicRoughness": {
        "baseColorFactor": [
          0.5,
          0.5,
          0.5,
          1
        ],
        "metallicFactor": 0,
        "roughnessFactor": 0.59999999999999998
      }
    },
    {
      "doubleSided": true,
      "emissiveFactor": [
        0,
        0,
        0
      ],
      "name": "blinn1",
      "pbrMetallicRoughness": {
        "baseColorFactor": [
          0.5,
          0.5,
          0.5,
          1
        ],
        "metallicFactor": 0,
        "roughnessFactor": 0.93943736178313975
      }
    }
  ],
  "meshes": [
    {
      "name": "pPlane54_lambert1_0",
      "primitives": [
        {
          "attributes": {
            "NORMAL": 1,
            "POSITION": 0,
            "TEXCOORD_0": 2
          },
          "indices": 3,
          "material": 0,
          "mode": 4
        }
      ]
    },
    {
      "name": "pPlane54_blinn1_0",
      "primitives": [
        {
          "attributes": {
            "NORMAL": 5,
            "POSITION": 4,
            "TEXCOORD_0": 6
          },
          "indices": 7,
          "material": 1,
          "mode": 4
        }
      ]
    }
  ],
  "nodes": [
    {
      "children": [
        1
      ],
      "name": "RootNode (gltf orientation matrix)",
      "rotation": [
        -0.70710678118654746,
        -0,
        -0,
        0.70710678118654757
      ]
    },
    {
      "children": [
        2
      ],
      "name": "RootNode (model correction matrix)"
    },
    {
      "children": [
        3
      ],
      "matrix": [
        1,
        0,
        0,
        0,
        0,
        0,
        1,
        0,
        0,
        -1,
        0,
        0,
        0,
        0,
        0,
        1
      ],
      "name": "73e4bbe21f51476fac85422d300ebf32.fbx"
    },
    {
      "children": [
        4
      ],
      "name": "RootNode"
    },
    {
      "children": [
        5,
        6
      ],
      "name": "pPlane54"
    },
    {
      "mesh": 0,
      "name": "pPlane54_lambert1_0"
    },
    {
      "mesh": 1,
      "name": "pPlane54_blinn1_0"
    }
  ],
  "scene": 0,
  "scenes": [
    {
      "name": "OSG_Scene",
      "nodes": [
        0
      ]
    }
  ]
}

